<?xml version="1.0" encoding="utf-8"?>
<!-- Generator: Adobe Illustrator 24.2.3, SVG Export Plug-In . SVG Version: 6.00 Build 0)  -->
<svg version="1.1" id="Layer_1" xmlns="http://www.w3.org/2000/svg" xmlns:xlink="http://www.w3.org/1999/xlink" x="0px" y="0px"
	 viewBox="0 0 595.3 841.9" style="enable-background:new 0 0 595.3 841.9;" xml:space="preserve">
<style type="text/css">
	.st0{fill:#C69C6C;}
	.st1{fill:#FF9632;}
	.st2{fill:none;stroke:#000000;stroke-miterlimit:10;}
	.st3{fill:#C69C6D;}
</style>
<g>
	<path d="M343.9,454.3L343.9,454.3c0,0.8-0.1,1.5-0.2,2.3c-0.2,1.4-0.5,2.7-1,4c0,0.1-0.1,0.3-0.1,0.4c-0.1,0.2-0.1,0.4-0.2,0.6v0
		c0,0.1,0,0.1-0.1,0.2c-0.7,1.9-1.6,3.7-2.7,5.5c-2.4,4-5.5,7.4-8.9,10.5c-6.8,6.2-14.7,11.1-22.7,15.4c-8.1,4.2-16.4,7.9-24.9,11.3
		c-8.4,3.4-16.9,6.4-25.5,9.5c8.1-4.2,16.4-7.8,24.6-11.6c4.1-1.9,8.2-3.7,12.3-5.7c4.1-1.9,8.1-3.9,12.1-6.1
		c4-2.1,7.9-4.3,11.7-6.7c3.8-2.4,7.5-5,10.9-7.8c3.4-2.9,6.6-6,9.2-9.6c2.1-2.9,3.8-6.2,4.9-9.7C343.5,456,343.7,455.2,343.9,454.3
		C343.9,454.3,343.9,454.3,343.9,454.3z"/>
</g>
<g>
	<path d="M318.9,404.7c0,0.5-0.1,1.1-0.3,1.5l-0.4,0.8c-0.3,0.6-0.6,1.1-0.9,1.6c-1.3,2.1-2.7,4.1-4.5,5.9c-1.7,1.8-3.8,3.4-6.1,4.4
		c-2.3,1.1-5,1.5-7.5,1.2c-2.6-0.3-5-1.2-7.1-2.4c-4.2-2.4-7.6-5.8-10.7-9.4c-2.9-0.3-5.9-0.9-8.7-2c-2.8-1-5.4-2.3-7.9-3.8
		c-0.9,2.4-1.9,4.7-3.3,6.8c-1.5,2.2-3.3,4.2-5.2,6c1.9-1.9,3.5-4,4.9-6.2c1.3-2.3,2.4-4.7,3.1-7.2l0.1-0.4l0.4,0.2
		c2.7,1.4,5.4,2.7,8.2,3.6c2.8,0.9,5.8,1.4,8.8,1.6h0.3l0.2,0.2c3.1,3.5,6.6,6.9,10.6,9.1c2,1.1,4.2,1.8,6.4,2s4.4-0.2,6.4-1.2
		c4-1.9,7.1-5.6,9.4-9.6c0.3-0.5,0.6-1,0.8-1.5l0.4-0.8c0.1-0.1,0.1-0.2,0.1-0.3c0-0.1,0-0.2-0.1-0.3c-0.1-0.1,0-0.1-0.3-0.3
		l-1.4-1.2l-5.3-4.8c-3.5-3.2-7-6.5-10.6-9.7c-3.5-3.2-7.1-6.3-10.9-9.2c-1.9-1.4-3.8-2.8-5.8-3.8c-1-0.5-2-0.9-2.9-1h-1.6l-1.8-0.1
		l-14.3-0.5c-4.1,0.5-8.2,0.6-12,1c-2,0.2-4,0.5-5.8,0.9c-0.9,0.2-1.8,0.5-2.6,0.8c-0.8,0.4-1.4,0.8-1.8,1.3l-0.1,0.1
		c-2.5,3.1-4.8,6.4-6.9,9.8c-2.1,3.4-3.9,7-5.6,10.6c-3.4,7.3-5.9,14.9-7.9,22.8c-2,7.8-3.4,15.8-5,23.7c-0.8,4-1.6,8-2.7,11.9
		c-0.6,2-1.3,3.9-2.2,5.7c-0.7,1.7-1.8,3.5-3.4,4.8c1.5-1.4,2.5-3.2,3.3-5c0.8-1.9,1.4-3.8,1.9-5.7c1-3.9,1.6-7.9,2.3-11.9
		c0.6-4,1.2-8,1.9-12s1.5-8,2.4-12c1.8-7.9,4.2-15.8,7.4-23.3c1.6-3.8,3.5-7.4,5.6-11c2.1-3.5,4.5-6.9,7-10.1l-0.1,0.1
		c0.2-0.3,0.5-0.6,0.7-0.8c0.1-0.1,0.4-0.4,0.4-0.4c0.6-0.5,1.2-0.8,1.8-1.1c1-0.5,2.1-0.8,3.1-1.1c2.1-0.5,4.1-0.8,6.2-1
		c4.1-0.4,8.1-0.6,12.1-1.1h0.2l4.7,0.1l3.2,0.1l6.4,0.2l1.8,0.1h1.3l0.6,0.1c1.5,0.2,2.7,0.8,3.9,1.4c2.3,1.2,4.2,2.6,6.2,4.1
		c5.3,4.2,10.2,8.6,15,13.2c0.1,0.1,0.2,0.1,0.2,0.2c2.1,1.9,4.1,3.9,6.2,5.8l5.2,4.9l1.3,1.2c0.1,0.1,0.3,0.2,0.4,0.4
		c0.2,0.2,0.3,0.4,0.4,0.6C318.7,403.7,318.9,404.2,318.9,404.7z"/>
</g>
<g>
	<path class="st0" d="M311.2,380.7c-0.3,1.4-0.8,2.7-1.5,4s-1.5,2.5-2.6,3.5c-0.5,0.6-1.1,1-1.7,1.5c-0.2,0.2-0.4,0.3-0.7,0.5
		c-4.8-4.5-9.7-9-15-13.2c-2-1.5-3.9-2.9-6.2-4.1c-1.2-0.6-2.4-1.2-3.9-1.4l-0.6-0.1h-1.3l-1.8-0.1l-6.4-0.2c0.5-0.2,1-0.3,1.5-0.5
		c0.6-0.2,1.1-0.4,1.6-0.7c0.5-0.3,1-0.6,1.4-1.1c3.2-2.6,6.7-4.8,10.5-6.5c1.9-0.8,3.8-1.5,5.8-1.9c2-0.5,4-0.6,5.9-0.4
		c1.9,0.2,3.8,0.8,5.4,1.8c1.7,1,3.1,2.3,4.3,3.9s2.2,3.3,3.1,5.2c0.9,1.9,1.6,3.8,2.2,5.8v-0.1
		C311.5,377.8,311.5,379.3,311.2,380.7z"/>
	<path d="M313.6,377.1c0,1.4-0.2,2.7-0.6,4c-0.5,1.5-1.1,3-2.1,4.3c-0.2,0.3-0.5,0.6-0.7,0.9c-0.2,0.3-0.5,0.6-0.8,0.9
		c-0.3,0.3-0.6,0.6-0.8,0.8l-0.9,0.7c-0.3,0.2-0.6,0.5-1,0.7l-1,0.6c-0.2,0.1-0.5,0.3-0.7,0.4c-0.5,0.2-0.9,0.4-1.4,0.6
		c0.4-0.3,0.8-0.6,1.2-0.8c0.2-0.2,0.5-0.3,0.7-0.5c0.6-0.5,1.2-0.9,1.7-1.5c1.1-1,1.9-2.2,2.6-3.5s1.2-2.6,1.5-4s0.3-2.9,0.1-4.1
		v0.1c-0.6-2-1.3-3.9-2.2-5.8c-0.9-1.9-1.9-3.6-3.1-5.2s-2.6-2.9-4.3-3.9c-1.6-1-3.5-1.6-5.4-1.8c-1.9-0.2-3.9-0.1-5.9,0.4
		c-2,0.4-3.9,1.1-5.8,1.9c-3.8,1.7-7.3,3.9-10.5,6.5c-0.5,0.6-1,0.8-1.4,1.1c-0.5,0.3-1,0.5-1.6,0.7c-0.5,0.2-1,0.4-1.5,0.5
		c-0.5,0.2-1.1,0.3-1.6,0.5c-1.9,0.3-4.1,0.6-6.3,0.7c1.6-0.4,3.2-0.8,4.7-1.3c0.5-0.2,1.1-0.4,1.6-0.5c1-0.4,2-0.8,2.9-1.3
		c0.9-0.5,1.9-1.1,2.3-1.7l0.1-0.1c1.5-1.5,3.2-2.9,5-4.2s3.6-2.5,5.6-3.4c2-1,4.1-1.8,6.3-2.3c2.2-0.5,4.5-0.7,6.8-0.5
		c2.3,0.2,4.6,1,6.6,2.3c2,1.2,3.7,2.9,5,4.7c2.5,3.5,3.9,7.3,4.9,11.3c0,0.1,0,0.2,0.1,0.2l0.1,0.6v0.1
		C313.6,376.5,313.6,376.8,313.6,377.1z"/>
</g>
<g>
	<path d="M336.8,394C336.8,394,336.8,394.1,336.8,394l0-0.1C336.8,393.9,336.8,394,336.8,394c0,0-0.1,0.1-0.1,0.1
		c-0.1,0.4-0.2,0.7-0.3,0.9c-0.1,0.3-0.3,0.7-0.4,1c-0.3,0.6-0.6,1.3-0.9,1.9c-0.6,1.2-1.3,2.4-1.9,3.6c-1.4,2.3-3,4.6-4.7,6.7
		c-3.4,4.2-7.5,7.9-12.3,10.7c-4.8,2.7-10.2,4.3-15.7,4.2c-3.9-0.1-7.7-0.9-11.4-2.3c0,0,0,0,0,0c-1.3-0.5-2.6-1.1-3.9-1.7
		c5,1.8,10.2,2.8,15.4,2.4c5.2-0.3,10.1-2,14.4-4.7c4.4-2.7,8.1-6.3,11.3-10.3c1.6-2,3.1-4.2,4.4-6.4c0.7-1.1,1.3-2.2,1.9-3.4
		c0.3-0.6,0.6-1.1,0.8-1.7c0.1-0.3,0.2-0.6,0.3-0.8c0.1-0.3,0.2-0.6,0.2-0.7v-0.3c0.8-2.7,0.7-5.8-0.3-8.6c-1-2.8-2.6-5.5-4.8-7.6
		c-2.2-2.1-4.9-3.7-7.9-4c-1.5-0.1-3.1,0.1-4.5,0.7c-1,0.5-2.1,1.1-3,1.8c-0.3,0.3-0.6,0.5-1,0.8c0.3-0.4,0.6-0.7,0.9-1
		c0.8-0.8,1.7-1.6,2.8-2.2c1.4-0.8,3.1-1.3,4.8-1.3c3.5-0.1,6.7,1.5,9.3,3.7c2.6,2.2,4.6,5,5.8,8.3C337.3,387,337.8,390.6,336.8,394
		z"/>
</g>
<g>
	<path class="st0" d="M348.5,411c-0.2,2.5-0.9,4.9-2.1,7.1l-0.1,0.1c-0.1,0.1-0.4,0.5-0.6,0.8c-0.2,0.4-0.5,0.7-0.8,1
		c-0.5,0.7-1.2,1.3-1.8,1.9c-1.3,1.3-2.6,2.4-4,3.6c-2.8,2.3-5.6,4.5-8.5,6.6c-5.9,4.1-11.9,8-18.5,10.5c-3.2,1.3-6.7,2.2-10,2
		c-0.8-0.1-1.6-0.2-2.4-0.4c-0.4-0.1-0.7-0.2-1.1-0.4c-0.3-0.2-0.7-0.4-1.1-0.6c-1.5-0.8-2.9-1.8-4.1-3c-2.5-2.4-4.1-5.6-4.8-9
		c-0.7-3.4-0.4-6.9,0.6-10.3c3.6,1.4,7.5,2.3,11.4,2.3c5.5,0.1,10.9-1.5,15.7-4.2c4.8-2.8,8.9-6.5,12.3-10.7
		c1.7-2.1,3.3-4.4,4.7-6.7c0.6-1.2,1.3-2.4,1.9-3.6c0.3-0.6,0.6-1.3,0.9-1.9c0.1-0.3,0.3-0.7,0.4-1c0.1-0.3,0.2-0.5,0.3-0.9
		c2.1,0.9,4,2.1,5.7,3.5c2,1.7,3.6,3.7,4.7,6C348.2,406,348.7,408.5,348.5,411z"/>
	<path d="M348.5,419.1l0.1-0.1c0,0.1-0.1,0.2-0.1,0.2c0,0,0,0.1,0,0.1c-0.3,0.5-0.5,0.9-0.8,1.2c-0.3,0.4-0.6,0.8-0.9,1.1
		c-0.6,0.7-1.3,1.4-1.9,2.1c-1.3,1.3-2.6,2.6-4,3.8c-2.7,2.5-5.6,4.7-8.5,6.9c-3,2.2-6,4.2-9.2,6s-6.5,3.5-10,4.8
		c-3.5,1.2-7.3,2.2-11.2,1.8c-0.4,0-0.8-0.1-1.1-0.2c0,0,0,0,0,0c-0.6-0.1-1.2-0.3-1.7-0.4c-0.5-0.2-0.9-0.4-1.4-0.6
		c-0.4-0.2-0.9-0.4-1.3-0.7c-1.7-1-3.2-2.2-4.4-3.6c-2.6-2.8-4.2-6.5-4.5-10.2c-0.4-3.6,0.3-7.3,1.7-10.5c0-0.1,0.1-0.2,0.1-0.2
		c0,0.1,0,0.2-0.1,0.3c-1,3.4-1.3,6.9-0.6,10.3c0.7,3.4,2.3,6.6,4.8,9c1.2,1.2,2.6,2.2,4.1,3c0.4,0.2,0.8,0.4,1.1,0.6
		c0.4,0.2,0.7,0.3,1.1,0.4c0.8,0.2,1.6,0.3,2.4,0.4c3.3,0.2,6.8-0.7,10-2c6.6-2.5,12.6-6.4,18.5-10.5c2.9-2.1,5.7-4.3,8.5-6.6
		c1.4-1.2,2.7-2.3,4-3.6c0.6-0.6,1.3-1.2,1.8-1.9c0.3-0.3,0.6-0.6,0.8-1c0.2-0.3,0.5-0.7,0.6-0.8l0.1-0.1c1.2-2.2,1.9-4.6,2.1-7.1
		s-0.3-5-1.4-7.3c-1.1-2.3-2.7-4.3-4.7-6c-1.7-1.4-3.6-2.7-5.7-3.5c-0.4-0.2-0.8-0.3-1.2-0.5c0.4,0.1,0.8,0.2,1.2,0.3c0,0,0,0,0,0
		c0,0,0,0,0,0c2.2,0.6,4.2,1.6,6.1,3c2.2,1.6,4.1,3.6,5.5,6c1.4,2.4,2.1,5.2,2.1,8S349.7,416.6,348.5,419.1z"/>
</g>
<g>
	<path class="st0" d="M356.3,436.8c-1,3.2-2.9,6.3-5.1,9.2c-2.1,2.9-4.5,5.5-7.1,8.2l0,0c-0.1,0-0.1,0.1-0.2,0.1v0c0,0,0,0,0,0
		c-4.1,2.8-8.5,5.4-12.9,7.6c-4.5,2.2-9.3,4.1-14.3,4.5c-2.5,0.2-5-0.1-7.3-1.1c-2.3-1-4.1-2.8-5.4-5c-1.2-2.2-2-4.6-2.5-7.1
		c-0.3-2.1-0.5-4.2-0.6-6.4c0.4,0.1,0.8,0.1,1.1,0.2c3.9,0.4,7.7-0.6,11.2-1.8c3.5-1.3,6.8-3,10-4.8s6.2-3.8,9.2-6
		c2.9-2.2,5.8-4.4,8.5-6.9c1.4-1.2,2.7-2.5,4-3.8c0.6-0.7,1.3-1.4,1.9-2.1c0.3-0.3,0.6-0.7,0.9-1.1c0.3-0.3,0.5-0.7,0.8-1.2
		c2.8,2.2,5.5,4.7,7,7.7c0.8,1.5,1.3,3.1,1.4,4.8C357,433.5,356.8,435.2,356.3,436.8z"/>
	<path d="M359.1,437.6c-1.1,3.9-3.2,7.2-5.7,10.2c-2.5,2.9-5.3,5.5-8.3,7.8l-0.1,0.1c-0.4,0.3-0.9,0.6-1.3,0.8
		c-0.1,0.1-0.3,0.2-0.4,0.3c-3.8,2.4-7.7,4.6-11.8,6.5c-4.7,2.1-9.6,3.9-14.9,4.2c-2.6,0.1-5.3-0.2-7.7-1.4
		c-2.4-1.1-4.3-3.2-5.5-5.4c-1.2-2.3-1.9-4.8-2.3-7.3c-0.2-2.3-0.3-4.5-0.3-6.6c0-0.4,0-0.8,0-1.2c0,0.4,0,0.8,0.1,1.2
		c0.1,2.2,0.3,4.3,0.6,6.4c0.5,2.5,1.3,4.9,2.5,7.1c1.3,2.2,3.1,4,5.4,5c2.3,1,4.8,1.3,7.3,1.1c5-0.4,9.8-2.3,14.3-4.5
		c4.4-2.2,8.8-4.8,12.9-7.6c0,0,0,0,0,0c0.1,0,0.1-0.1,0.2-0.1l0,0c2.6-2.7,5-5.3,7.1-8.2c2.2-2.9,4.1-6,5.1-9.2
		c0.5-1.6,0.7-3.3,0.6-5c-0.1-1.7-0.6-3.3-1.4-4.8c-1.5-3-4.2-5.5-7-7.7c-0.1-0.1-0.2-0.1-0.3-0.2c0.1,0,0.2,0.1,0.3,0.1
		c3.4,1.4,6.6,3.5,8.8,6.7c1.1,1.6,2,3.6,2.2,5.6C359.8,433.5,359.6,435.6,359.1,437.6z"/>
</g>
<g>
	<path d="M278.6,441.4c-0.3,2.4-1,4.9-1.9,7.1c-1,2.3-2.2,4.4-3.9,6.3c-1.7,1.8-3.6,3.4-5.7,4.5c1.6-1.8,3-3.6,4.1-5.6
		c1.1-2,1.9-4.1,2.5-6.2c0.6-2.1,1-4.3,1.1-6.6c0.2-2.2,0.2-4.5,0.1-6.7c-0.2-4.5-0.8-9.1-1.6-13.6c-0.8-4.4-1.8-8.9-2.9-13.6
		c2.6,4,4.5,8.4,6,12.9c1.5,4.6,2.4,9.3,2.6,14.2C279.1,436.5,279,439,278.6,441.4z"/>
</g>
<g>
	<path d="M381,470.8c-3.2-1.2-6.3-2.7-9.4-4c-3.1-1.2-6.2-2.4-9.3-3.4c-3.1-1-6.3-1.8-9.5-2.1c-2.9-0.3-7.1-0.8-10.3-0.3
		c-0.3,0-0.7,0.1-1,0.2c0.3-0.2,0.7-0.4,1.1-0.6c3-1.3,7.2-1.5,10.2-1.6c3.5-0.1,7,0.6,10.3,1.6s6.5,2.5,9.4,4.2
		C375.7,466.4,378.5,468.6,381,470.8z"/>
</g>
<g>
	<path d="M419.1,415.8c-8.4,0.4-15.4-0.1-23.5,1.3c-4.1,0.7-8.1,1.6-11.9,3c-3.8,1.3-7.4,3.2-10.3,5.8c-2.9,2.6-4.7,6.1-5.1,10
		l-0.1,0.7v2.2c0.1,1,0.1,2,0.3,3c0.2,1,0.3,2,0.6,3l0.4,1.5c0.1,0.5,0.3,1,0.4,1.5c1.2,3.9,2.9,7.7,4.8,11.3
		c1.9,3.7,4.2,8.1,6.3,11.7c-5.3-6.4-10.3-14.2-13.3-22.2c-0.2-0.5-0.4-1-0.6-1.5l-0.5-1.5c-0.3-1-0.5-2.1-0.7-3.2s-0.3-2.2-0.4-3.3
		v-2.5l0.1-0.8c0.1-2.2,0.8-4.5,1.8-6.5l0.8-1.5l1-1.4c0.3-0.5,0.7-0.9,1.1-1.3c0.4-0.4,0.7-0.9,1.2-1.2c3.3-3,7.3-5,11.4-6.3
		c4.1-1.3,8.3-2.1,12.5-2.6c7.2-0.9,13.4-0.3,20.3,0.5c0.4,0,0.8,0.1,1.2,0.1C417.7,415.6,418.4,415.7,419.1,415.8z"/>
</g>
<g>
	<path d="M419.1,415.8c-0.7-0.1-1.4-0.1-2.1-0.2c-0.4,0-0.8-0.1-1.2-0.1c-7.9-0.9-15.6-2.5-23.1-5.5c-4.3-1.7-8.4-4-12-7.2
		c-0.9-0.8-1.7-1.7-2.5-2.6c-0.4-0.5-0.7-1-1-1.5l-0.5-0.8l-0.4-0.8c-1.2-2.1-1.9-4.5-2.3-6.9l-0.2-1.8v-1.8c0-0.6,0.1-1.2,0.1-1.8
		c0.1-0.6,0.1-1.2,0.2-1.8c0.3-1.2,0.4-2.3,0.8-3.5l0.5-1.7c0.2-0.6,0.4-1.1,0.6-1.6c1.8-4.3,4.1-8.3,6.8-12.1
		c5.7-7.5,12.2-13.9,19-19.9c-2.9,3.5-6.1,6.7-8.9,10.2c-2.8,3.5-5.5,7.2-7.9,10.9c-2.4,3.8-4.6,7.7-6.1,11.8l-0.6,1.5l-0.5,1.6
		c-0.4,1-0.5,2.1-0.7,3.1c-0.1,0.5-0.1,1.1-0.2,1.6c-0.1,0.5-0.1,1.1-0.1,1.6v1.6l0.2,1.6c0.3,2.1,0.8,4.1,1.9,5.9l0.8,1.4
		c0.3,0.4,0.6,0.9,0.9,1.3c0.7,0.8,1.3,1.6,2.1,2.4c3.1,3,6.9,5.3,10.9,7.1C401.6,411.4,410.2,413.8,419.1,415.8z"/>
</g>
<g>
	<path d="M401.7,344.1c-7,3.7-14.3,6.9-22.1,9c-3.9,1-7.9,1.7-12,1.9c-4.1,0.1-8.4-0.4-12.2-2.3c-1.9-1-3.6-2.4-5.1-4
		c-1.4-1.7-2.5-3.5-3.3-5.5c-1.5-3.9-2-8.1-1.9-12.1c0-7.9,1.9-15.7,4.4-23.3c-1.3,7.8-2.5,15.6-2.1,23.3c0.2,3.8,0.7,7.7,2.2,11.1
		c0.7,1.7,1.7,3.2,2.9,4.6c1.2,1.3,2.7,2.4,4.3,3.2c3.2,1.6,7,2.2,10.8,2.1c3.8,0,7.7-0.6,11.5-1.4
		C386.7,349.2,394.2,346.7,401.7,344.1z"/>
</g>
<g>
	<path d="M349.5,307.8c-1.9,4.1-4.1,7.9-6.5,11.8c-2.5,3.8-5.3,7.4-8.5,10.7c-3.2,3.3-6.9,6.2-11,8.3c-4.2,2.1-8.9,3.2-13.7,3.2
		c-4.7-0.2-9.4-1.5-13.5-3.5c-4.2-2.1-8-4.7-11.4-7.7c-7-5.8-13.5-14.1-18.6-21.6c6,6.7,12.9,14.5,20,19.9c3.5,2.7,7.2,5.1,11.1,6.9
		c3.9,1.8,8.2,2.9,12.4,3.1c4.2,0.1,8.5-0.9,12.4-2.7c3.9-1.8,7.4-4.5,10.7-7.5c3.2-3,6.2-6.3,8.9-9.9
		C344.5,315.3,347,311.6,349.5,307.8z"/>
</g>
<g>
	<path d="M274,345.2c-1.1,2-2.4,3.8-4.1,5.3c-1.7,1.5-3.5,2.8-5.5,3.7c-3.9,1.9-8.1,3.1-12.3,3.8s-8.4,1-12.6,1
		c-8.4,0.2-16.6-0.3-24.9-1.7c8.4,0.1,16.6,0,24.8-0.6c4.1-0.3,8.2-0.7,12.2-1.5c4-0.8,7.9-1.9,11.5-3.6c3.6-1.7,6.6-4.3,8.4-7.7
		c0.4-0.9,0.9-1.7,1.1-2.6c0.4-0.9,0.5-1.9,0.7-2.8c0.1-0.5,0.1-1,0.2-1.5c0-0.5,0.1-1,0.1-1.5V334c0-0.5,0-1-0.1-1.5
		c-0.3-4-1.3-8-2.6-11.9c-1.3-3.9-3-7.7-4.6-11.6c4.4,7,8.3,14.7,9.5,23.3C276.4,336.6,276,341.2,274,345.2z"/>
</g>
<g>
	<path class="st1" d="M415.7,415.4c-6.9-0.7-13.2-1.4-20.3-0.5c-4.2,0.5-8.4,1.3-12.5,2.6c-4.1,1.3-8.1,3.3-11.4,6.3
		c-0.5,0.3-0.8,0.8-1.2,1.2c-0.4,0.4-0.8,0.8-1.1,1.3l-1,1.4l-0.8,1.5c-1,2-1.7,4.3-1.8,6.5l-0.1,0.8v2.5c0.1,1.1,0.2,2.2,0.4,3.3
		s0.4,2.2,0.7,3.2l0.5,1.5c0.2,0.5,0.4,1,0.6,1.5c3,8,8,15.8,13.3,22.2c-2.6-2.2-5.4-4.4-8.4-6.1c-2.9-1.7-6.1-3.2-9.4-4.2
		s-6.8-1.7-10.3-1.6c-3,0.1-7.3,0.3-10.2,1.6c0.4-1.3,0.8-2.6,1-4c0.4-0.3,0.9-0.6,1.3-0.8l0.1-0.1c3-2.3,5.8-4.9,8.3-7.8
		c2.5-3,4.6-6.3,5.7-10.2c0.5-2,0.7-4.1,0.4-6.1c-0.2-2-1.1-4-2.2-5.6c-2.2-3.2-5.4-5.3-8.8-6.7c0-0.1,0.1-0.1,0.1-0.2l-0.1,0.1
		c1.2-2.5,2-5.3,2-8.1s-0.7-5.6-2.1-8c-1.4-2.4-3.3-4.4-5.5-6c-1.9-1.3-3.9-2.3-6.1-3c1-3.4,0.5-7.1-0.7-10.2
		c-1.2-3.3-3.2-6.1-5.8-8.3c-2.6-2.2-5.8-3.8-9.3-3.7c-1.7,0-3.4,0.5-4.8,1.3c-1.1,0.6-2,1.3-2.8,2.2c-1-3.9-2.4-7.8-4.9-11.3
		c-1.3-1.8-3-3.5-5-4.7c-2-1.3-4.3-2.1-6.6-2.3c-2.3-0.2-4.6,0-6.8,0.5c-2.2,0.5-4.3,1.3-6.3,2.3c-2,0.9-3.8,2.1-5.6,3.4
		s-3.5,2.7-5,4.2l-0.1,0.1c-0.4,0.6-1.4,1.2-2.3,1.7c-0.9,0.5-1.9,0.9-2.9,1.3c-0.5,0.2-1.1,0.4-1.6,0.5l-4.7-0.1h-0.2
		c-4,0.5-8,0.7-12.1,1.1c-2.1,0.2-4.1,0.5-6.2,1c-1,0.3-2.1,0.6-3.1,1.1c-0.6,0.3-1.2,0.6-1.8,1.1c-1-2.4-2.6-4.4-4.2-6.2
		c-1.7-2-3.6-3.7-5.7-5.2c-2-1.5-4.2-2.8-6.5-3.9c-2.3-1.1-4.7-2-7.2-2.6c8.3,1.4,16.5,1.9,24.9,1.7c4.2,0,8.4-0.3,12.6-1
		s8.4-1.9,12.3-3.8c2-0.9,3.8-2.2,5.5-3.7c1.7-1.5,3-3.3,4.1-5.3c2-4,2.4-8.6,1.8-12.9c-1.2-8.6-5.1-16.3-9.5-23.3
		c5.1,7.5,11.6,15.8,18.6,21.6c3.4,3,7.2,5.6,11.4,7.7c4.1,2,8.8,3.3,13.5,3.5c4.8,0,9.5-1.1,13.7-3.2c4.1-2.1,7.8-5,11-8.3
		c3.2-3.3,6-6.9,8.5-10.7c2.4-3.8,4.6-7.7,6.5-11.8c-2.5,7.6-4.4,15.3-4.4,23.3c-0.1,4,0.4,8.2,1.9,12.1c0.8,2,1.9,3.8,3.3,5.5
		c1.5,1.6,3.2,3,5.1,4c3.8,1.9,8.1,2.4,12.2,2.3c4.1-0.2,8.1-0.9,12-1.9c7.8-2.1,15.1-5.3,22.1-9c-6.8,6-13.3,12.4-19,19.9
		c-2.7,3.8-5,7.8-6.8,12.1c-0.2,0.5-0.4,1-0.6,1.6l-0.5,1.7c-0.4,1.2-0.5,2.3-0.8,3.5c-0.1,0.6-0.1,1.2-0.2,1.8
		c0,0.6-0.1,1.2-0.1,1.8v1.8l0.2,1.8c0.4,2.4,1.1,4.8,2.3,6.9l0.4,0.8l0.5,0.8c0.3,0.5,0.6,1,1,1.5c0.8,0.9,1.6,1.8,2.5,2.6
		c3.6,3.2,7.7,5.5,12,7.2C400.1,412.9,407.9,414.5,415.7,415.4z"/>
	<path d="M238.2,375.2c-1.9-1.7-4-3.1-5.9-4.6s-3.9-3-5.8-4.4l-6-4.3c-2-1.5-4-2.9-5.9-4.6c2.5,0.6,4.9,1.5,7.2,2.6
		c2.3,1.1,4.5,2.4,6.5,3.9c2.1,1.5,4,3.2,5.7,5.2C235.6,370.8,237.2,372.8,238.2,375.2z"/>
</g>
<path class="st2" d="M238.8,376.5"/>
<g>
	<path class="st3" d="M331.5,463.3c-4.7,2.1-9.6,3.9-14.9,4.2c-2.6,0.1-5.3-0.2-7.7-1.4c-2.4-1.1-4.3-3.2-5.5-5.4
		c-1.2-2.3-1.9-4.8-2.3-7.3c-0.2-2.3-0.3-4.5-0.3-6.6c-0.6-0.1-1.2-0.3-1.7-0.4c-0.5-0.2-0.9-0.4-1.4-0.6c-0.4-0.2-0.9-0.4-1.3-0.7
		c-1.7-1-3.2-2.2-4.4-3.6c-2.6-2.8-4.2-6.5-4.5-10.2c-0.4-3.6,0.3-7.3,1.7-10.5c-1.3-0.5-2.6-1.1-3.9-1.7c5,1.8,10.2,2.8,15.4,2.4
		c5.2-0.3,10.1-2,14.4-4.7c4.4-2.7,8.1-6.3,11.3-10.3c1.6-2,3.1-4.2,4.4-6.4c0.7-1.1,1.3-2.2,1.9-3.4c0.3-0.6,0.6-1.1,0.8-1.7
		c0.1-0.3,0.2-0.6,0.3-0.8c0.1-0.3,0.2-0.6,0.2-0.7v-0.3c0.8-2.7,0.7-5.8-0.3-8.6c-1-2.8-2.6-5.5-4.8-7.6c-2.2-2.1-4.9-3.7-7.9-4
		c-1.5-0.1-3.1,0.1-4.5,0.7c-1,0.5-2.1,1.1-3,1.8l0.1,0.6v0.1c0,0.3,0,0.6,0,0.9c0,1.4-0.2,2.7-0.6,4c-0.5,1.5-1.1,3-2.1,4.3
		c-0.2,0.3-0.5,0.6-0.7,0.9c-0.2,0.3-0.5,0.6-0.8,0.9c-0.3,0.3-0.6,0.6-0.8,0.8l-0.9,0.7c-0.3,0.2-0.6,0.5-1,0.7l-1,0.6
		c-0.2,0.1-0.5,0.3-0.7,0.4c2.1,1.9,4.1,3.9,6.2,5.8l5.2,4.9l1.3,1.2c0.1,0.1,0.3,0.2,0.4,0.4c0.2,0.2,0.3,0.4,0.4,0.6
		c0.2,0.4,0.4,0.9,0.4,1.4s-0.1,1.1-0.3,1.5l-0.4,0.8c-0.3,0.6-0.6,1.1-0.9,1.6c-1.3,2.1-2.7,4.1-4.5,5.9c-1.7,1.8-3.8,3.4-6.1,4.4
		c-2.3,1.1-5,1.5-7.5,1.2c-2.6-0.3-5-1.2-7.1-2.4c-4.2-2.4-7.6-5.8-10.7-9.4c-2.9-0.3-5.9-0.9-8.7-2c-2.8-1-5.4-2.3-7.9-3.8
		c-0.9,2.4-1.9,4.7-3.3,6.8c-1.5,2.2-3.3,4.2-5.2,6c1.9-1.9,3.5-4,4.9-6.2c1.3-2.3,2.4-4.7,3.1-7.2l0.1-0.4l0.4,0.2
		c2.7,1.4,5.4,2.7,8.2,3.6c2.8,0.9,5.8,1.4,8.8,1.6h0.3l0.2,0.2c3.1,3.5,6.6,6.9,10.6,9.1c2,1.1,4.2,1.8,6.4,2s4.4-0.2,6.4-1.2
		c4-1.9,7.1-5.6,9.4-9.6c0.3-0.5,0.6-1,0.8-1.5l0.4-0.8c0.1-0.1,0.1-0.2,0.1-0.3c0-0.1,0-0.2-0.1-0.3c-0.1-0.1,0-0.1-0.3-0.3
		l-1.4-1.2l-5.3-4.8c-3.5-3.2-7-6.5-10.6-9.7c-3.5-3.2-7.1-6.3-10.9-9.2c-1.9-1.4-3.8-2.8-5.8-3.8c-1-0.5-2-0.9-2.9-1h-1.6l-1.8-0.1
		l-14.3-0.5c-4.1,0.5-8.2,0.6-12,1c-2,0.2-4,0.5-5.8,0.9c-0.9,0.2-1.8,0.5-2.6,0.8c-0.8,0.4-1.4,0.8-1.8,1.3l-0.1,0.1
		c-2.5,3.1-4.8,6.4-6.9,9.8c-2.1,3.4-3.9,7-5.6,10.6c-3.4,7.3-5.9,14.9-7.9,22.8c-2,7.8-3.4,15.8-5,23.7c-0.8,4-1.6,8-2.7,11.9
		c-0.6,2-1.3,3.9-2.2,5.7c-0.7,1.7-1.8,3.5-3.4,4.8c7.7,21.7,25.1,37.3,52.2,46.7c8.1-4.2,16.4-7.8,24.6-11.6
		c4.1-1.9,8.2-3.7,12.3-5.7c4.1-1.9,8.1-3.9,12.1-6.1c4-2.1,7.9-4.3,11.7-6.7c3.8-2.4,7.5-5,10.9-7.8c3.4-2.9,6.6-6,9.2-9.6
		c2.1-2.9,3.8-6.2,4.9-9.7C339.5,459.2,335.6,461.4,331.5,463.3z M278.6,441.4c-0.3,2.4-1,4.9-1.9,7.1c-1,2.3-2.2,4.4-3.9,6.3
		c-1.7,1.8-3.6,3.4-5.7,4.5c1.6-1.8,3-3.6,4.1-5.6c1.1-2,1.9-4.1,2.5-6.2c0.6-2.1,1-4.3,1.1-6.6c0.2-2.2,0.2-4.5,0.1-6.7
		c-0.2-4.5-0.8-9.1-1.6-13.6c-0.8-4.4-1.8-8.9-2.9-13.6c2.6,4,4.5,8.4,6,12.9c1.5,4.6,2.4,9.3,2.6,14.2
		C279.1,436.5,279,439,278.6,441.4z"/>
	<g>
		<path d="M331.5,463.3c-3,1.3-6,2.5-9.2,3.3c-3.1,0.8-6.4,1.2-9.7,0.7c-1.6-0.2-3.2-0.8-4.6-1.6c-1.4-0.8-2.6-2-3.6-3.3
			c-1-1.3-1.7-2.8-2.3-4.3c-0.6-1.5-0.9-3.1-1.2-4.7l0,0l0,0l-0.3-6.6l0.1,0.1l-1.6-0.4c-0.3-0.1-0.5-0.2-0.8-0.3l-0.8-0.3l0,0l0,0
			c-0.4-0.2-0.9-0.4-1.3-0.7l0,0c-2-1.2-3.8-2.7-5.2-4.6c-1.5-1.8-2.5-3.9-3.2-6.2c-0.3-1.1-0.5-2.3-0.6-3.4c-0.1-1.2-0.1-2.3,0-3.5
			c0.2-2.3,0.8-4.6,1.7-6.8l0.1,0.2l-3.9-1.7l0.1-0.3c4.7,1.7,9.8,2.7,14.8,2.4c5-0.2,10-1.8,14.2-4.4c4.3-2.6,8-6.1,11.2-10
			c3.2-3.9,5.8-8.2,7.8-12.9l0,0.1l0.1-0.4c0-0.1,0.1-0.1,0.1-0.2l0-0.3l0-0.1l0-0.1c0.8-2.7,0.6-5.6-0.3-8.3
			c-1-2.7-2.5-5.2-4.5-7.1c-2-2-4.5-3.5-7.2-3.9c-1.3-0.2-2.8-0.1-4,0.3c-1.3,0.4-2.5,1.2-3.6,2l0.2-0.7l0.2,0.6l0,0.1l0,0.1
			c0,1.1,0,2.3-0.2,3.5c-0.2,1.2-0.6,2.3-1,3.3c-0.4,1.1-1,2.2-1.7,3.1l-0.5,0.7c0,0.1-0.1,0.2-0.3,0.3l-0.3,0.4
			c-0.4,0.5-0.8,0.9-1.2,1.3l0,0l0,0l-0.9,0.7l0,0l0,0c-0.2,0.2-0.6,0.5-1.1,0.8l0.1,0l-0.8,0.5c-0.3,0.2-0.6,0.3-0.9,0.5l0.2-1.3
			l6.6,6.1l3.3,3.1l1.6,1.5l0.8,0.8l0.4,0.4c0,0,0.4,0.2,0.6,0.6l-0.2-0.2c0.3,0.3,0.5,0.7,0.6,0.9c0.1,0.3,0.3,0.6,0.4,0.9
			c0.1,0.3,0.1,0.8,0.1,1.1c0,0.3-0.1,0.6-0.1,1c-0.1,0.3-0.3,0.7-0.4,0.9c-0.1,0.2-0.2,0.5-0.4,0.7l-0.8,1.5
			c-1.1,1.9-2.4,3.7-3.8,5.3c-2.9,3.3-6.7,6.1-11.3,6.8c-4.6,0.7-9.2-0.8-12.8-3.3c-3.7-2.4-6.8-5.5-9.7-8.8l0.8,0.4
			c-1.5-0.2-3-0.4-4.5-0.7c-1.5-0.3-3-0.7-4.4-1.3c-1.4-0.5-2.9-1.1-4.2-1.7c-1.4-0.7-2.7-1.4-4-2.2l1.9-0.7c-0.9,2.5-2,5-3.6,7.2
			c-1.5,2.2-3.3,4.2-5.3,6.1l-1.8-1.9c0.9-0.9,1.8-1.9,2.6-2.9c0.8-1,1.6-2.1,2.2-3.2c0.6-1.1,1.2-2.3,1.7-3.5
			c0.5-1.2,0.9-2.4,1.2-3.6l0.4-1.6l1.5,0.8c1.4,0.7,2.8,1.4,4.1,2c1.4,0.6,2.8,1.2,4.2,1.6c1.4,0.5,2.9,0.8,4.3,1.1
			c0.7,0.1,1.5,0.2,2.2,0.3c0.7,0.1,1.5,0.2,2.2,0.2l0.6,0l0.4,0.4l1.9,2c0.6,0.6,1.2,1.3,1.8,1.9c1.3,1.2,2.6,2.3,4,3.4
			c1.4,1,2.8,1.9,4.3,2.5c1.5,0.6,3.1,1,4.7,1.1c1.6,0.1,3.2-0.2,4.6-0.8c1.5-0.6,2.9-1.5,4.1-2.6c1.3-1.1,2.4-2.4,3.4-3.7
			c0.5-0.7,1-1.4,1.4-2.1c0.5-0.8,0.8-1.4,1.2-2.1l0.1-0.1l0.4-0.8l0.3-0.4c-0.1,0.1-0.2,0.2-0.3,0.4c-0.1,0.2-0.1,0.3-0.1,0.4
			c0,0,0-0.1,0,0c0,0.1,0,0.3,0.1,0.4c0,0.1,0.1,0.2,0.1,0.2c0,0.1,0.1,0.1,0,0c-0.1-0.1-0.2-0.3-0.2-0.4c0,0,0.1,0.2,0.1,0.2
			c0.1,0.2,0.1,0.1,0.2,0.2l0,0l-0.1-0.1l-0.1,0c-1.5-1.3-3-2.7-4.5-4l-4.4-4l-8.8-8.1c-2.9-2.7-5.9-5.2-9-7.7
			c-1.5-1.2-3.1-2.4-4.7-3.4c-0.8-0.5-1.6-1-2.4-1.4c-0.8-0.4-1.7-0.7-2.3-0.8l0.2,0c-1.5,0-3-0.1-4.5-0.1l-4.4-0.2l-8.8-0.3l0.2,0
			c-3.5,0.4-7,0.5-10.4,0.8c-1.7,0.1-3.4,0.3-5,0.6c-0.8,0.1-1.7,0.3-2.5,0.5l-2.3,0.7l0.1-0.1c-0.6,0.3-1.1,0.6-1.4,0.9l0,0.1
			l-0.1,0.1l-0.1,0.1l0.1-0.1c-2.3,2.9-4.5,5.9-6.5,9.1c-2,3.1-3.7,6.4-5.4,9.8c-3.3,6.7-5.8,13.8-7.8,21c-2,7.2-3.5,14.6-5,22
			c-0.8,3.7-1.5,7.4-2.3,11.1c-0.9,3.7-1.8,7.5-3.6,10.9l0-0.1c-0.8,1.9-2,3.7-3.7,5.1l0.2-0.9c2,5.7,4.7,11,8.1,16
			c3.4,4.9,7.5,9.4,12.1,13.3c9.2,7.8,20.1,13.3,31.4,17.4l-0.3,0c7.8-4,15.9-7.5,23.9-11.1l12-5.5c4-1.8,7.9-3.7,11.8-5.8
			c7.8-4.1,15.4-8.5,22.4-13.9c3.4-2.7,6.7-5.7,9.5-9.1c2.8-3.4,5-7.3,6.3-11.5l0,0C339.5,459.2,335.6,461.4,331.5,463.3z
			 M331.5,463.3c4.1-1.9,8-4.1,11.8-6.5l0.1,0l0,0.1c-1.3,4.2-3.5,8.1-6.3,11.5c-2.8,3.4-6,6.4-9.5,9.2c-6.9,5.4-14.6,9.9-22.3,14
			c-3.9,2.1-7.8,4-11.8,5.9l-11.9,5.6c-8,3.7-16,7.3-23.8,11.4l-0.1,0.1l-0.1,0c-11.4-3.9-22.5-9.4-31.9-17.2
			c-4.7-3.9-8.9-8.4-12.4-13.4c-3.5-5-6.4-10.5-8.5-16.2l-0.2-0.5l0.4-0.3c1.4-1.2,2.4-2.8,3.1-4.5l0,0l0,0c0.8-1.6,1.4-3.4,2-5.2
			c0.5-1.8,1-3.6,1.4-5.4c0.8-3.7,1.5-7.4,2.2-11.1c1.4-7.4,2.8-14.9,4.7-22.2c1.9-7.4,4.4-14.6,7.7-21.5c1.6-3.4,3.4-6.9,5.4-10.1
			c2-3.2,4.2-6.4,6.6-9.4l0-0.1l0.1-0.1l0.1-0.1l-0.1,0.1c0.7-0.9,1.5-1.3,2.2-1.7l0.1,0l0.1,0l2.6-0.8c0.9-0.2,1.7-0.4,2.6-0.5
			c1.7-0.3,3.5-0.5,5.2-0.6c3.5-0.3,6.9-0.4,10.3-0.8l0.1,0l0.1,0l8.8,0.3l4.4,0.1c1.5,0,2.9,0.2,4.4,0.1l0.1,0l0.1,0
			c1.3,0.2,2.3,0.6,3.3,1.1c1,0.5,1.9,1,2.7,1.6c1.7,1.1,3.3,2.3,4.9,3.6c3.2,2.5,6.2,5.1,9.2,7.8l8.8,8l4.4,4
			c1.5,1.3,2.9,2.7,4.4,3.9l-0.1-0.1l0.2,0.1c0.1,0.1,0.2,0.1,0.4,0.3c0.1,0.1,0.2,0.3,0.2,0.3c0,0-0.1-0.2-0.2-0.3
			c-0.1-0.1,0,0,0.1,0.1c0.1,0.1,0.1,0.2,0.2,0.3c0.1,0.2,0.2,0.5,0.2,0.7c0,0.2,0,0.2,0,0.3c0,0.1,0,0.4-0.1,0.6
			c-0.1,0.3-0.3,0.5-0.4,0.6l0.3-0.4l-0.4,0.8l0.1-0.1c-0.5,0.9-1,1.8-1.4,2.6c-0.5,0.8-1,1.6-1.6,2.3c-1.1,1.5-2.4,3-3.8,4.2
			c-1.4,1.3-3.1,2.3-4.9,3.1c-1.9,0.8-3.9,1.1-5.9,1c-2-0.1-3.9-0.6-5.7-1.4c-1.8-0.8-3.4-1.8-4.9-2.9c-1.5-1.1-2.9-2.3-4.2-3.6
			c-0.7-0.6-1.3-1.3-1.9-2l-1.8-2l1,0.4c-0.9,0-1.7-0.1-2.5-0.2c-0.8-0.1-1.6-0.2-2.4-0.3c-1.6-0.3-3.2-0.7-4.7-1.2
			c-1.5-0.5-3-1.1-4.5-1.8c-1.4-0.7-2.9-1.4-4.2-2.1l1.9-0.9c-0.4,1.4-0.8,2.7-1.4,4c-0.6,1.3-1.2,2.5-1.9,3.8
			c-0.8,1.3-1.6,2.3-2.4,3.5c-0.9,1.1-1.8,2.2-2.8,3.1l-1.8-1.9c1.8-1.7,3.5-3.6,4.9-5.6c1.4-2,2.4-4.3,3.3-6.6l0.5-1.5l1.3,0.8
			c1.2,0.8,2.5,1.5,3.8,2.1c1.3,0.6,2.6,1.2,4,1.7c1.3,0.5,2.7,0.9,4.1,1.2c1.4,0.3,2.8,0.5,4.2,0.7l0.5,0.1l0.3,0.4
			c2.7,3.2,5.6,6.2,9,8.4c1.7,1.2,3.5,2,5.4,2.6c1.9,0.6,3.9,0.8,5.9,0.5c1-0.1,1.9-0.4,2.8-0.7c0.9-0.4,1.9-0.8,2.7-1.3
			c1.7-1,3.2-2.4,4.6-3.9c1.4-1.5,2.6-3.2,3.7-5l0.8-1.3c0.1-0.2,0.2-0.5,0.4-0.7c0.1-0.3,0.2-0.3,0.2-0.5c0-0.2,0.1-0.4,0.1-0.6
			c0-0.2,0-0.3,0-0.5c-0.1-0.3-0.4-0.9-0.5-1l-0.2-0.2c0.1,0.1,0.1,0.1-0.2-0.1l-0.4-0.4l-0.8-0.8l-1.6-1.6l-3.3-3.1l-6.5-6.2
			l-0.8-0.8l1-0.5c0.3-0.1,0.5-0.3,0.8-0.4l0.8-0.5l0,0l0,0c0.2-0.1,0.5-0.3,0.9-0.6l0,0l0.9-0.7l-0.1,0.1c0.4-0.4,0.8-0.8,1.1-1.1
			l0.2-0.3c0.1-0.1,0.2-0.2,0.3-0.3l0.5-0.6c0.7-0.8,1.1-1.7,1.6-2.7c0.4-1,0.8-2,0.9-3c0.2-1,0.2-2.1,0.2-3.2l0,0.2l-0.1-0.6
			l-0.1-0.4l0.4-0.3c1.2-0.9,2.5-1.7,4-2.2c1.5-0.4,3.1-0.6,4.6-0.3c3.1,0.5,5.7,2.3,7.9,4.4c2.1,2.1,3.7,4.8,4.7,7.6
			c1,2.9,1.1,6,0.3,8.9l0-0.1c0,0.2,0,0.3-0.1,0.6l-0.2,0.6l0,0l0,0.1c-2,4.6-4.8,9-8,12.9c-3.2,3.9-7.1,7.4-11.5,10
			c-4.4,2.6-9.4,4.2-14.5,4.4c-5.1,0.3-10.2-0.7-15-2.5l0.1-0.3l3.9,1.7l0.2,0.1l-0.1,0.2c-0.9,2.1-1.5,4.3-1.7,6.6
			c-0.1,1.1-0.1,2.3,0,3.4c0.1,1.1,0.3,2.3,0.6,3.4c0.6,2.2,1.7,4.3,3.1,6.1c1.4,1.8,3.2,3.4,5.2,4.5l0,0l0,0
			c0.4,0.3,0.8,0.5,1.3,0.7l0,0l0.8,0.3c0.3,0.1,0.5,0.2,0.8,0.3l1.6,0.4l0.1,0l0,0.1l0.3,6.6l0,0c0.3,1.6,0.6,3.2,1.2,4.7
			c0.5,1.5,1.2,3,2.2,4.3c1,1.3,2.2,2.4,3.6,3.2c1.4,0.8,3,1.4,4.6,1.6c3.2,0.5,6.5,0.1,9.6-0.7
			C325.5,465.8,328.5,464.6,331.5,463.3z"/>
		<path d="M278.6,441.4c-0.2,1.8-0.6,3.6-1.2,5.4c-0.6,1.8-1.3,3.4-2.2,5.1c-0.9,1.6-2.1,3.1-3.4,4.4c-1.3,1.3-2.8,2.5-4.4,3.5
			l-2.2,1.3l1.7-2c1.4-1.8,2.7-3.6,3.7-5.6c1-2,1.7-4.1,2.2-6.2c0.5-2.2,0.8-4.3,0.8-6.5c0.1-2.2,0.1-4.4-0.1-6.7
			c-0.1-2.2-0.3-4.5-0.6-6.7c-0.3-2.2-0.6-4.5-1-6.7c-0.9-4.4-1.7-8.9-2.5-13.4l-1-5.8l3,4.9c1.6,2.6,2.8,5.5,3.9,8.3
			c1,2.9,1.9,5.8,2.6,8.7c0.6,3,1.1,6,1.2,9C279.2,435.4,279.1,438.4,278.6,441.4z M278.6,441.4c0.5-3,0.5-6,0.2-9
			c-0.3-3-0.8-5.9-1.7-8.8c-0.8-2.9-1.9-5.7-3.2-8.3c-1.3-2.7-2.7-5.3-4.4-7.7l2-0.8c1.1,4.4,2.2,8.9,3.2,13.4
			c0.4,2.3,0.8,4.5,1.1,6.8c0.3,2.3,0.5,4.6,0.6,6.9c0.1,2.3,0,4.7-0.2,7c-0.2,2.3-0.7,4.7-1.4,6.9c-0.7,2.2-1.7,4.4-2.9,6.4
			c-1.2,2-2.8,3.8-4.4,5.4l-0.6-0.8c1.6-0.8,3.1-1.8,4.5-3c1.4-1.2,2.6-2.6,3.6-4.1c1-1.5,1.8-3.2,2.4-4.9
			C277.9,445,278.4,443.2,278.6,441.4z"/>
	</g>
</g>
</svg>
