<?xml version="1.0" encoding="utf-8"?>
<!-- Generator: Adobe Illustrator 24.2.3, SVG Export Plug-In . SVG Version: 6.00 Build 0)  -->
<svg version="1.1" id="Layer_1" xmlns="http://www.w3.org/2000/svg" xmlns:xlink="http://www.w3.org/1999/xlink" x="0px" y="0px"
	 viewBox="0 0 595.3 841.9" style="enable-background:new 0 0 595.3 841.9;" xml:space="preserve">
<style type="text/css">
	.st0{fill:#BE1622;}
</style>
<g>
	<path class="st0" d="M297.6,241c-8.2,47.5-25.6,95.1-52.3,142.6c-16.2,28.8-9.7,65.4,15.9,86.3c20.4,16.6,40.9,18.9,61.3,6.6
		c31.9-19.1,42.1-60.8,23.2-92.8C320.1,340.1,304,292.5,297.6,241z"/>
	<path d="M297.6,241c-3,23.7-8.6,47.1-16.1,69.8c-3.8,11.4-8.1,22.6-12.8,33.6c-4.7,11.1-9.9,21.9-15.4,32.6l-4.2,8
		c-0.7,1.3-1.2,2.5-1.9,3.8l-0.9,1.9c-0.3,0.6-0.5,1.3-0.7,2c-2.2,5.2-3.4,10.7-4.2,16.2c-0.8,5.5-0.6,11.2,0.1,16.7l0.3,2.1
		c0.1,0.7,0.2,1.4,0.4,2.1l1,4.1c0.3,1.3,0.9,2.6,1.3,4c0.2,0.7,0.4,1.3,0.7,2l0.8,1.9l0.8,1.9l0.4,1l0.5,0.9l1.9,3.7
		c0.7,1.2,1.5,2.3,2.2,3.5c0.4,0.6,0.7,1.2,1.2,1.7l1.3,1.6l1.3,1.6l0.6,0.8l0.7,0.8l2.8,3c1,1,2.1,1.8,3.1,2.8l1.6,1.4l1.7,1.3
		c4.5,3.4,9.2,6.3,14.2,8.4c5,2.1,10.3,3.3,15.5,3.4c5.3,0.1,10.6-0.9,15.6-2.8c0.6-0.3,1.3-0.4,1.9-0.7l1.9-0.9
		c1.3-0.5,2.4-1.2,3.7-1.9c2.4-1.3,4.7-2.9,6.9-4.5c8.8-6.6,15.7-15.8,20-26c4.3-10.2,5.8-21.6,4.4-32.7c-0.7-5.5-2.1-11-4.2-16.2
		l-0.8-1.9l-0.9-1.9c-0.6-1.3-1.3-2.5-1.9-3.7l-4.3-7.9c-5.7-10.6-10.9-21.5-15.5-32.6c-4.5-11.1-8.6-22.5-12-34
		C303.9,288.4,299.5,264.8,297.6,241z M297.6,241c4.1,23.5,9.8,46.7,17.7,69c3.9,11.2,8.3,22.2,13.3,32.9
		c5,10.7,10.3,21.2,16.3,31.4l4.5,7.6c0.8,1.4,1.6,2.7,2.3,4.1l1.1,2.1l1,2.2c0.7,1.4,1.2,2.9,1.8,4.4c0.5,1.5,1,3,1.4,4.5
		c0.9,3,1.5,6.2,2,9.3c1.8,12.6,0.3,25.6-4.4,37.5c-4.7,11.8-12.7,22.4-22.9,30.2c-2.6,1.9-5.2,3.7-8,5.3c-1.4,0.8-2.8,1.6-4.3,2.2
		l-2.2,1c-0.7,0.4-1.5,0.6-2.3,0.9c-6.1,2.4-12.7,3.7-19.3,3.6c-6.7-0.2-13.2-1.7-19.2-4.3c-6-2.5-11.4-5.9-16.4-9.8l-1.9-1.4
		c-0.6-0.5-1.2-1.1-1.8-1.6c-1.2-1.1-2.4-2.1-3.5-3.2l-3.3-3.5l-0.8-0.9l-0.7-0.9l-1.5-1.9l-1.5-1.9c-0.5-0.6-0.9-1.3-1.3-2
		c-0.8-1.4-1.7-2.7-2.5-4.1l-2.2-4.3l-0.5-1.1l-0.5-1.1l-0.9-2.2l-0.9-2.2c-0.3-0.7-0.5-1.5-0.7-2.3c-0.4-1.5-1-3-1.4-4.6l-1-4.7
		c-0.2-0.8-0.3-1.6-0.4-2.4l-0.3-2.4c-0.7-6.3-0.8-12.7,0.2-19c0.9-6.2,2.5-12.5,5.1-18.2c0.3-0.7,0.6-1.5,0.9-2.2l1.1-2.1
		c0.7-1.4,1.5-2.8,2.2-4.1l4.4-7.7c5.8-10.3,11.2-20.9,16.3-31.5c5.1-10.7,9.8-21.6,14.1-32.6C285.6,287.1,292.5,264.3,297.6,241z"
		/>
</g>
</svg>
