<?xml version="1.0" encoding="utf-8"?>
<!-- Generator: Adobe Illustrator 24.2.3, SVG Export Plug-In . SVG Version: 6.00 Build 0)  -->
<svg version="1.1" id="Layer_1" xmlns="http://www.w3.org/2000/svg" xmlns:xlink="http://www.w3.org/1999/xlink" x="0px" y="0px"
	 viewBox="0 0 1920 1080" style="enable-background:new 0 0 1920 1080;" xml:space="preserve">
<style type="text/css">
	.st0{fill:#51A9F2;}
</style>
<g>
	<g>
		<path class="st0" d="M1093,518.1c-1.8,9.1-4.2,17.7-6.8,26.1c-2.6,8.4-5.4,16.5-8.4,24.5c-11,10.9-21.9,21.9-32.9,32.8l-65.7,65.8
			l-17.7,17.7l-17.7-17.7L876.5,600l-16.8-16.8c-5.6-5.6-11.1-11.3-17-16.7c-3.1-8.1-5.9-16.5-8.6-25c-2.7-8.5-5.2-17.2-7.2-26.4
			c9.2,2,17.9,4.5,26.4,7.2c8.5,2.7,16.9,5.5,25,8.6c5.4,5.8,11.1,11.3,16.7,17l16.8,16.8l67.3,67.3h-35.4l65.8-65.8
			c10.9-11,22-21.9,32.8-32.9c8-3,16.1-5.8,24.5-8.4C1075.3,522.3,1083.8,519.9,1093,518.1z"/>
	</g>
	<g>
		<path class="st0" d="M1093,398c-1.8,9.1-4.2,17.7-6.8,26.1c-2.6,8.4-5.4,16.5-8.4,24.5c-11,10.9-21.9,21.9-32.9,32.8l-65.8,65.8
			l-17.7,17.7l-17.7-17.7L876.6,480l-16.8-16.8c-5.6-5.6-11.1-11.3-17-16.7c-3.1-8.1-5.9-16.5-8.6-25c-2.7-8.5-5.2-17.2-7.2-26.4
			c9.2,2,17.9,4.5,26.4,7.2c8.5,2.7,16.9,5.5,25,8.6c5.4,5.8,11.1,11.3,16.7,17l16.8,16.8l67.3,67.3h-35.4l65.8-65.8
			c10.9-11,22-21.9,32.8-32.9c8-3,16.1-5.8,24.5-8.4C1075.3,402.3,1083.9,399.9,1093,398z"/>
	</g>
</g>
</svg>
