<?xml version="1.0" encoding="utf-8"?>
<!-- Generator: Adobe Illustrator 24.2.3, SVG Export Plug-In . SVG Version: 6.00 Build 0)  -->
<svg version="1.1" id="Layer_1" xmlns="http://www.w3.org/2000/svg" xmlns:xlink="http://www.w3.org/1999/xlink" x="0px" y="0px"
	 viewBox="0 0 1920 1080" style="enable-background:new 0 0 1920 1080;" xml:space="preserve">
<style type="text/css">
	.st0{fill:#C69C6D;}
	.st1{fill:#FFFFFF;}
</style>
<g>
	<path class="st0" d="M1121,862c-1.2,0.8-2.4,1.6-3.6,2.4c-145.7,94-462,55.9-532.9-39.9c3.8,4.6,7.9,8.8,12.3,12.8
		c4.4,3.9,9,7.6,13.9,10.9c9.6,6.8,19.9,12.5,30.5,17.7c10.6,5.2,21.5,9.7,32.5,13.6c11.1,4,22.3,7.6,33.6,10.7
		c22.7,6.2,45.8,11.2,69,14.7c23.3,3.6,46.7,6.1,70.2,7.4c23.5,1.4,47.1,1.6,70.6,0.7c11.8-0.4,23.5-1.2,35.2-2.3l4.4-0.4l4.4-0.5
		c2.9-0.3,5.9-0.6,8.8-1c5.8-0.7,11.7-1.5,17.5-2.4c11.6-1.8,23.2-4,34.7-6.6c11.5-2.6,22.9-5.6,34.1-9.2
		c22.5-7.1,44.2-16.4,64.5-28.6h0L1121,862z"/>
	<path d="M1120.8,861.9c0,0-0.1,0-0.1,0.1c-1.1,0.8-2.2,1.6-3.3,2.4c-18.3,13-38.6,22.8-59.6,30.8c-11.2,4.2-22.6,7.8-34.1,10.9
		c-11.5,3.2-23.2,5.7-35,7.9c-5.9,1.1-11.8,2.1-17.7,3c-3,0.5-5.9,0.8-8.9,1.2l-4.4,0.6l-4.5,0.5c-11.9,1.4-23.8,2.4-35.7,3
		c-23.9,1.2-47.8,1.1-71.6-0.2c-23.8-1.5-47.6-4.1-71.2-8.1c-11.8-2-23.5-4.4-35.1-7.1c-5.8-1.4-11.6-2.8-17.4-4.4
		c-2.9-0.8-5.8-1.6-8.6-2.4c-2.9-0.8-5.7-1.7-8.6-2.6c-22.8-7.1-45.2-15.9-66.2-27.5c-2.6-1.5-5.2-2.9-7.8-4.5l-3.8-2.3l-3.8-2.4
		c-2.5-1.6-4.9-3.4-7.4-5.1c-1.2-0.9-2.4-1.8-3.6-2.7c-1.2-0.9-2.4-1.8-3.5-2.8l-3.5-2.9c-1.2-0.9-2.2-2-3.4-3
		c-2.3-2-4.3-4.1-6.5-6.2c-3.8-4.1-7.7-8.7-11-13.6c3.8,4.6,7.9,8.8,12.3,12.8c4.4,3.9,9,7.6,13.9,10.9c9.6,6.8,19.9,12.5,30.5,17.7
		c10.6,5.2,21.5,9.7,32.5,13.6c11.1,4,22.3,7.6,33.6,10.7c22.7,6.2,45.8,11.2,69,14.7c23.3,3.6,46.7,6.1,70.2,7.4
		c23.5,1.4,47.1,1.6,70.6,0.7c11.8-0.4,23.5-1.2,35.2-2.3l4.4-0.4l4.4-0.5c2.9-0.3,5.9-0.6,8.8-1c5.8-0.7,11.7-1.5,17.5-2.4
		c11.6-1.8,23.2-4,34.7-6.6c11.5-2.6,22.9-5.6,34.1-9.2c22.5-7.1,44.2-16.4,64.5-28.6C1120.7,861.9,1120.8,861.9,1120.8,861.9z"/>
</g>
<g>
	<path class="st0" d="M977.5,264.5c-3.2,3.6-7.9,5.5-14,6c-5.1,3.8-13,8-20,6c-8.6,6.1-20,10-29,6c-4.2,4.3-21,11-27,2
		c0,0-75.8-6.7-78-1c-71.2,188-29.1,367.6-24,387.7c-2.4-8.9-4.4-18-6.2-27c-1.9-9.7-3.7-19.4-5.1-29.2c-2.9-19.6-5-39.3-6.3-59
		c-1.3-19.8-1.8-39.6-1.4-59.4c0.3-19.8,1.6-39.6,3.6-59.4l0.8-7.4c0.2-2.5,0.6-4.9,0.9-7.4l1-7.4c0.3-2.5,0.6-4.9,1-7.4l2.3-14.7
		l2.7-14.6c3.9-19.5,8.6-38.8,14.2-57.9c3-9.5,5.8-19,9.3-28.4l2.5-7l0.6-1.8l0.3-0.9v-0.1c0,0,0.1-0.1,0.2-0.4
		c0.2-0.4,0.4-0.8,0.7-1.1l0.9-0.9c0.1-0.1,0.2-0.1,0.3-0.2c0.7-0.5,1.2-0.7,1.7-0.9l0.7-0.2l0.6-0.2c0.8-0.2,1.5-0.3,2.2-0.5
		c2.8-0.4,5.3-0.6,7.9-0.7c2.5-0.1,5.1-0.1,7.6-0.1c10,0,19.9,0.5,29.9,1c9.9,0.6,19.8,1.2,29.7,2.1l2.1,0.2l1.2,1.8
		c0.8,1.1,1.8,1.8,3.4,2.2c1.6,0.4,3.6,0.3,5.6,0c2-0.4,4.1-1,6.1-1.9c1-0.4,1.9-0.9,2.8-1.4c0.9-0.5,1.7-1.1,2.1-1.5l2.2-2.2
		l2.9,1.3c3.5,1.5,7.9,1.5,12.1,0.4c4.3-1.1,8.5-3.3,12.3-6l1.8-1.3l2.2,0.6c2.2,0.6,4.9,0.3,7.7-0.7c2.8-1,5.6-2.7,8.2-4.6l1.1-0.8
		l1.4-0.1c2.2-0.2,4.4-0.6,6.2-1.4c1.3-0.5,2.5-1.2,3.5-2.1c-0.2-0.6-0.3-1.3-0.6-1.9c-0.5-1.6-1.2-3.4-1.9-5.1
		c-1.4-3.4-3-6.8-4.6-10.2c-3.3-6.8-6.9-13.5-10.7-20s-7.8-13-12.1-19c-2.2-3-4.4-5.9-6.8-8.5c-1.2-1.3-2.4-2.5-3.6-3.5
		c-0.6-0.5-1.2-0.9-1.7-1.2c-0.3-0.2-0.6-0.3-0.8-0.4c-7.8,0-15.8,0.8-23.7,1.8c-8.2,1-16.4,2.3-24.5,3.8
		c-16.3,3-32.5,6.7-48.5,11.1c-16,4.4-31.8,9.5-46.9,15.8c-7.6,3.2-15,6.7-21.9,10.8c-3.4,2.1-6.8,4.3-9.8,6.7s-5.7,5.1-7.6,7.9
		c-0.4,0.7-0.9,1.4-1.2,2.1c-0.2,0.4-0.3,0.7-0.4,1.1c-0.1,0.2-0.1,0.3-0.2,0.5l-0.2,0.7l-1.9,6l-3.8,12l-7.6,23.9l-15.4,47.8
		c-10.3,31.8-20.7,63.7-31.3,95.4c-10.7,31.7-21.4,63.4-32.7,95c-2.8,7.9-5.7,15.8-8.7,23.6l-2.2,5.9c-0.7,2-1.5,3.9-2.3,5.9
		l-4.7,11.7c-3.2,7.6-6.1,15.4-8.9,23.3c-2.8,7.9-5.4,15.8-7.9,23.7c-10.1,31.8-18.9,64.1-26,96.7c-3.5,16.3-6.6,32.8-8.5,49.3
		c-1,8.3-1.7,16.6-1.7,25c0,4.2,0.1,8.3,0.6,12.5c0.4,4.1,0.7,7.9,2.2,11.8c-0.1-0.3-0.2-0.6-0.3-0.9c-1.3-3.6-1.8-7-2.3-10.8
		c-0.6-4.2-0.9-8.3-1-12.5c-0.1-3.1-0.1-6.2,0-9.3c0,0,0-0.1,0-0.1c2.5-61.4,34.2-171.3,50.6-210.4c25.9-62.1,109-328,109-328
		c11-34,142-65,190-65C945.5,190.5,981.5,261.5,977.5,264.5z"/>
	<path d="M982.9,261.4c-0.3-1.2-0.6-2.2-0.9-3.2c-0.6-2-1.3-3.8-2.1-5.7c-1.5-3.7-3.1-7.3-4.8-10.8c-3.4-7.1-7-13.9-10.9-20.7
		c-3.9-6.8-8-13.4-12.6-19.9c-2.4-3.3-4.8-6.4-7.6-9.5c-1.4-1.6-2.9-3.1-4.7-4.5c-0.9-0.7-1.9-1.4-3-2.1c-1.2-0.7-2.4-1.3-4.2-1.7
		l-0.5-0.1h-0.5c-8.7,0-17.2,0.8-25.6,1.8s-16.8,2.3-25.1,3.8c-16.6,3-33,6.8-49.3,11.3c-16.3,4.6-32.4,9.8-48.1,16.4
		c-7.9,3.3-15.6,6.9-23.1,11.4c-3.7,2.2-7.4,4.7-10.9,7.5c-3.5,2.9-6.9,6.1-9.6,10.2c-0.6,1-1.3,2.1-1.8,3.3
		c-0.3,0.5-0.6,1.2-0.8,1.8l-0.3,0.9l-0.2,0.8l-1.9,6l-3.7,12l-7.5,23.9l-15,47.9c-10.1,31.9-20.3,63.8-30.5,95.6
		c-10.2,31.8-20.6,63.6-31.4,95.2c-2.8,7.9-5.4,15.8-8.3,23.6l-2.1,5.9c-0.7,2-1.4,4-2.2,5.9l-4.5,11.6c-3.2,7.9-5.9,15.8-8.6,23.8
		c-2.7,8-5.2,16-7.6,24c-4.9,16-9.2,32.2-13.2,48.5c-4,16.3-7.7,32.6-10.8,49.1s-5.7,33.1-7.2,49.8c-0.4,5.2-0.8,10.5-0.9,15.7
		c0,0.1,0,0.1,0,0.1c-0.1,3.1-0.1,6.2,0,9.3c0.1,4.2,0.4,8.3,1,12.5c0.5,3.8,0.9,7.3,2.3,10.8c0.1,0.3,0.2,0.6,0.3,0.9
		c-1.5-3.9-1.8-7.7-2.2-11.8c-0.5-4.2-0.6-8.3-0.6-12.5c0-8.4,0.7-16.7,1.7-25c1.9-16.5,5-33,8.5-49.3c7.1-32.6,15.9-64.9,26-96.7
		c2.5-7.9,5.1-15.8,7.9-23.7c2.8-7.9,5.7-15.7,8.9-23.3l4.7-11.7c0.8-2,1.6-3.9,2.3-5.9l2.2-5.9c3-7.8,5.9-15.7,8.7-23.6
		c11.3-31.6,22-63.3,32.7-95c10.6-31.7,21-63.6,31.3-95.4l15.4-47.8l7.6-23.9l3.8-12l1.9-6l0.2-0.7c0.1-0.2,0.1-0.3,0.2-0.5
		c0.1-0.4,0.2-0.7,0.4-1.1c0.3-0.7,0.8-1.4,1.2-2.1c1.9-2.8,4.6-5.5,7.6-7.9s6.4-4.6,9.8-6.7c6.9-4.1,14.3-7.6,21.9-10.8
		c15.1-6.3,30.9-11.4,46.9-15.8c16-4.4,32.2-8.1,48.5-11.1c8.1-1.5,16.3-2.8,24.5-3.8c8-1,15.9-1.8,23.7-1.8
		c0.2,0.1,0.5,0.2,0.8,0.4c0.5,0.3,1.1,0.7,1.7,1.2c1.2,1,2.4,2.2,3.6,3.5c2.4,2.6,4.6,5.5,6.8,8.5c4.3,6,8.3,12.5,12.1,19
		s7.4,13.2,10.7,20c1.6,3.4,3.2,6.8,4.6,10.2c0.7,1.7,1.4,3.5,1.9,5.1c0.3,0.7,0.4,1.3,0.6,1.9c-1,0.8-2.2,1.6-3.5,2.1
		c-1.8,0.8-4,1.2-6.2,1.4l-1.4,0.1l-1.1,0.8c-2.6,1.9-5.4,3.6-8.2,4.6c-2.8,1-5.5,1.3-7.7,0.7l-2.2-0.6l-1.8,1.3
		c-3.8,2.7-8,4.9-12.3,6c-4.2,1.1-8.6,1.1-12.1-0.4l-2.9-1.3l-2.2,2.2c-0.4,0.4-1.2,1-2.1,1.5c-0.9,0.5-1.8,1-2.8,1.4
		c-2,0.9-4.1,1.5-6.1,1.9c-2,0.3-4,0.4-5.6,0c-1.6-0.4-2.6-1.1-3.4-2.2l-1.2-1.8l-2.1-0.2c-9.9-0.9-19.8-1.5-29.7-2.1
		c-10-0.5-19.9-1-29.9-1c-2.5,0-5.1,0-7.6,0.1c-2.6,0.1-5.1,0.3-7.9,0.7c-0.7,0.2-1.4,0.3-2.2,0.5l-0.6,0.2l-0.7,0.2
		c-0.5,0.2-1,0.4-1.7,0.9c-0.1,0.1-0.2,0.1-0.3,0.2l-0.9,0.9c-0.3,0.3-0.5,0.7-0.7,1.1c-0.1,0.3-0.2,0.4-0.2,0.4v0.1l-0.3,0.9
		l-0.6,1.8l-2.5,7c-3.5,9.4-6.3,18.9-9.3,28.4c-5.6,19.1-10.3,38.4-14.2,57.9l-2.7,14.6l-2.3,14.7c-0.4,2.5-0.7,4.9-1,7.4l-1,7.4
		c-0.3,2.5-0.7,4.9-0.9,7.4l-0.8,7.4c-2,19.8-3.3,39.6-3.6,59.4c-0.4,19.8,0.1,39.6,1.4,59.4c1.3,19.7,3.4,39.4,6.3,59
		c1.4,9.8,3.2,19.5,5.1,29.2c1.8,9.1,3.8,18.1,6.2,27c0.1,0.3,0.2,0.6,0.2,0.9c0.1,0.3,0.1,0.5,0.2,0.7c-2.3-9.5-4.1-19.2-4.9-28.1
		c-1.6-9.7-3-19.5-4.2-29.3c-2.4-19.6-3.9-39.3-4.7-59c-1.6-39.4-0.1-78.9,4.6-118c4.7-39,12.9-77.7,24.4-115.2
		c3.1-9.3,6-18.7,9.5-27.9l2.5-6.9l0.5-1.5c0.3-0.1,0.8-0.2,1.2-0.3c2.1-0.3,4.5-0.4,6.9-0.5h7.2c9.8,0.1,19.6,0.6,29.4,1.2
		c9.2,0.7,18.4,1.3,27.6,2.1c0.7,0.8,1.6,1.5,2.4,2.1c1.5,1.1,3.2,1.7,4.8,2.1c3.2,0.7,6.3,0.6,9.2,0.1c2.9-0.5,5.6-1.4,8.2-2.5
		c1.3-0.5,2.6-1.1,3.9-1.9c0.5-0.3,1-0.6,1.5-0.9c2.1,0.6,4.3,0.9,6.5,1c3.1,0.1,6.1-0.4,8.9-1.1c5-1.2,9.5-3.4,13.7-6.1
		c1.6,0.2,3.3,0.3,4.8,0.1c2.3-0.2,4.4-0.8,6.4-1.5c3.5-1.2,6.6-3,9.5-5c2.5-0.3,5.1-0.8,7.6-1.8c2.8-1.1,5.6-2.9,7.8-5.2
		c0.4-0.3,0.6-0.6,0.9-1c0.1-0.1,0.1-0.2,0.2-0.3l0.1-0.2l0.1-0.1c0.1-0.1,0.1-0.2,0.2-0.4c0.1-0.3,0.2-0.6,0.3-0.9
		c0.1-0.2,0.1-0.4,0.1-0.6c0.1-0.2,0.1-0.4,0.1-0.6v-1.2C983.2,262.7,983,262,982.9,261.4z M974.3,261.4c0.2-0.2,0.4-0.3,0.5-0.5
		L974.3,261.4z"/>
</g>
<g>
	<path class="st0" d="M1521.2,671.3c-0.2-2.6-0.4-5.2-0.7-7.7l-1-7.7l-1.3-7.7l-0.3-1.9l-0.4-1.9l-0.8-3.8l-0.8-3.8l-0.9-3.7
		l-0.9-3.7c-0.2-0.6-0.3-1.3-0.5-1.9l-0.6-1.8c-0.9-2.4-1.6-4.8-2.6-7.2c-0.9-2.4-1.8-4.9-2.9-7.2c-4-9.5-8.9-18.7-14.4-27.4
		s-12-16.8-19.1-24.3c-3.5-3.8-7.4-7.2-11.2-10.6c-4-3.3-8-6.5-12.3-9.3c-4.2-3-8.7-5.5-13.2-8.1c-4.6-2.4-9.2-4.7-14-6.6
		c-4.7-2-9.6-3.7-14.6-5.3c-2.5-0.7-5-1.5-7.5-2.1l-3.8-0.9l-3.8-0.8c-20.3-4.2-41.4-4.3-62.1-1.3c-10.3,1.5-20.5,3.9-30.5,7
		c-10,3.1-19.7,7-29.2,11.7c-9.4,4.6-18.5,9.9-27.2,15.8c-8.7,5.9-16.9,12.5-24.8,19.6c-7.8,7.1-15.1,14.8-21.9,22.9
		c-6.8,8.1-13.2,16.4-18.9,25.4c-14.5-10.5-30.3-19-46.8-25.4c-16.5-6.5-33.7-10.8-51.1-13.4c-34.9-5.1-70.6-3.4-105.2,3.3
		c-34.6,6.7-68.3,18.4-100.2,33.9C843.9,631.1,814,650.6,786,673c0,0,0,0,0-0.1c0,0,0,0,0,0c0,0,0-0.1,0-0.1c0,0,0,0,0,0
		c-0.1-0.3-0.1-0.5-0.2-0.7c-0.1-0.3-0.2-0.6-0.2-0.9c-2.4-8.9-4.4-18-6.2-27c-1.9-9.7-3.7-19.4-5.1-29.2c-2.9-19.6-5-39.3-6.3-59
		c-1.3-19.8-1.8-39.6-1.4-59.4c0.3-19.8,1.6-39.6,3.6-59.4l0.8-7.4c0.2-2.5,0.6-4.9,0.9-7.4l1-7.4c0.3-2.5,0.6-4.9,1-7.4l2.3-14.7
		l2.7-14.6c3.9-19.5,8.6-38.8,14.2-57.9c3-9.5,5.8-19,9.3-28.4l2.5-7l0.6-1.8l0.3-0.9v-0.1c0,0,0.1-0.1,0.2-0.4
		c0.2-0.4,0.4-0.8,0.7-1.1l0.9-0.9c0.1-0.1,0.2-0.1,0.3-0.2c0.7-0.5,1.2-0.7,1.7-0.9l0.7-0.2l0.6-0.2c0.8-0.2,1.5-0.3,2.2-0.5
		c2.8-0.4,5.3-0.6,7.9-0.7c2.5-0.1,5.1-0.1,7.6-0.1c10,0,19.9,0.5,29.9,1c9.9,0.6,19.8,1.2,29.7,2.1l2.1,0.2l1.2,1.8
		c0.8,1.1,1.8,1.8,3.4,2.2c1.6,0.4,3.6,0.3,5.6,0c2-0.4,4.1-1,6.1-1.9c1-0.4,1.9-0.9,2.8-1.4c0.9-0.5,1.7-1.1,2.1-1.5l2.2-2.2
		l2.9,1.3c3.5,1.5,7.9,1.5,12.1,0.4c4.3-1.1,8.5-3.3,12.3-6l1.8-1.3l2.2,0.6c2.2,0.6,4.9,0.3,7.7-0.7c2.8-1,5.6-2.7,8.2-4.6l1.1-0.8
		l1.4-0.1c2.2-0.2,4.4-0.6,6.2-1.4c1.3-0.5,2.5-1.2,3.5-2.1c-0.2-0.6-0.3-1.3-0.6-1.9c-0.5-1.6-1.2-3.4-1.9-5.1
		c-1.4-3.4-3-6.8-4.6-10.2c-3.3-6.8-6.9-13.5-10.7-20s-7.8-13-12.1-19c-2.2-3-4.4-5.9-6.8-8.5c-1.2-1.3-2.4-2.5-3.6-3.5
		c-0.6-0.5-1.2-0.9-1.7-1.2c-0.3-0.2-0.6-0.3-0.8-0.4c-7.8,0-15.8,0.8-23.7,1.8c-8.2,1-16.4,2.3-24.5,3.8
		c-16.3,3-32.5,6.7-48.5,11.1c-16,4.4-31.8,9.5-46.9,15.8c-7.6,3.2-15,6.7-21.9,10.8c-3.4,2.1-6.8,4.3-9.8,6.7s-5.7,5.1-7.6,7.9
		c-0.4,0.7-0.9,1.4-1.2,2.1c-0.2,0.4-0.3,0.7-0.4,1.1c-0.1,0.2-0.1,0.3-0.2,0.5l-0.2,0.7l-1.9,6l-3.8,12l-7.6,23.9l-15.4,47.8
		c-10.3,31.8-20.7,63.7-31.3,95.4c-10.7,31.7-21.4,63.4-32.7,95c-2.8,7.9-5.7,15.8-8.7,23.6l-2.2,5.9c-0.7,2-1.5,3.9-2.3,5.9
		l-4.7,11.7c-3.2,7.6-6.1,15.4-8.9,23.3c-2.8,7.9-5.4,15.8-7.9,23.7c-10.1,31.8-18.9,64.1-26,96.7c-3.5,16.3-6.6,32.8-8.5,49.3
		c-1,8.3-1.7,16.6-1.7,25c0,4.2,0.1,8.3,0.6,12.5c0.4,4.1,0.7,7.9,2.2,11.8c3.8,4.6,7.9,8.8,12.3,12.8c4.4,3.9,9,7.6,13.9,10.9
		c9.6,6.8,19.9,12.5,30.5,17.7c10.6,5.2,21.5,9.7,32.5,13.6c11.1,4,22.3,7.6,33.6,10.7c22.7,6.2,45.8,11.2,69,14.7
		c23.3,3.6,46.7,6.1,70.2,7.4c23.5,1.4,47.1,1.6,70.6,0.7c11.8-0.4,23.5-1.2,35.2-2.3l4.4-0.4l4.4-0.5c2.9-0.3,5.9-0.6,8.8-1
		c5.8-0.7,11.7-1.5,17.5-2.4c11.6-1.8,23.2-4,34.7-6.6c11.5-2.6,22.9-5.6,34.1-9.2c22.5-7.1,44.2-16.4,64.5-28.6c0,0,0.1,0,0.1-0.1
		c0.1,0,0.1,0.1,0.2,0.1c38.8,17,80.4,28,122.4,31.4c10.5,0.8,21,1.2,31.6,1.1c10.5-0.1,21-0.8,31.5-1.9c10.4-1.2,20.8-2.7,31.1-4.9
		c10.3-2.2,20.4-4.9,30.4-8.1c19.9-6.4,39.1-15.2,56.8-26.1c17.7-10.9,34.1-24.2,48-39.5c6.9-7.7,13.3-15.9,19-24.5
		c5.7-8.7,10.6-17.8,14.7-27.3c8.3-18.9,13.2-39.3,14.7-59.9C1522,692,1522,681.6,1521.2,671.3z M1121.3,723.4
		c-0.8,1.7-1.9,3.2-2.8,4.8l-2.9,4.8c-1.9,3.3-4.1,6.2-6.3,9.3c-1.1,1.5-2.2,3.1-3.3,4.6l-3.5,4.4c-9.4,11.7-20.3,22.4-32.3,31.7
		s-25.3,17.1-39.2,23.3l-5.3,2.3c-1.8,0.7-3.6,1.3-5.4,2l-5.4,2l-5.5,1.7c-1.8,0.6-3.7,1.1-5.5,1.7l-5.5,1.4c-1.8,0.5-3.7,1-5.6,1.4
		l-5.6,1.1c-30,5.9-60.8,5.3-90.4,0.2c-29.6-5.2-58.3-14.7-84.7-28.3c28.6,7.7,57.3,13.9,86.3,16.6c28.8,2.8,57.9,2.2,85.9-3.3
		l5.3-1c1.8-0.4,3.5-0.8,5.2-1.2l5.2-1.3l5.1-1.5l5.1-1.5l5-1.7c1.7-0.6,3.4-1.1,5-1.8l5-2c1.7-0.7,3.3-1.3,5-2l4.9-2.2l2.4-1.1
		l1.2-0.5l1.2-0.6l4.8-2.4c1.6-0.8,3.2-1.6,4.7-2.5l4.6-2.7c3.2-1.7,6.1-3.7,9.1-5.7c12-7.8,23.2-17,33.7-27.1l3.9-3.8
		c1.3-1.3,2.5-2.7,3.8-4c2.5-2.7,5.1-5.3,7.5-8.1l3.6-4.2c1.2-1.4,2.4-2.8,3.6-4.2c2.6-2.7,4.9-5.7,7.3-8.5
		C1124.8,716.8,1123.1,720.1,1121.3,723.4z"/>
	<path class="st0" d="M1179,617c-14.5-10.5-30.3-19-46.8-25.4c-16.5-6.5-33.7-10.8-51.1-13.4c-34.9-5.1-70.6-3.4-105.2,3.3
		c-34.6,6.7-68.3,18.4-100.2,33.9C843.9,631.1,814,650.6,786,673C912,559,1086,540,1179,617z"/>
	<path d="M1179,617c-14.5-10.5-30.3-19-46.8-25.4c-16.5-6.5-33.7-10.8-51.1-13.4c-34.9-5.1-70.6-3.4-105.2,3.3
		c-34.6,6.7-68.3,18.4-100.2,33.9C843.9,631.1,814,650.6,786,673c25.2-25.5,54.4-47.3,86.2-64.5s66.2-29.8,101.9-36.7l6.7-1.3
		l13.4-2l6.8-0.7l6.8-0.7l6.8-0.4c2.3-0.1,4.5-0.3,6.8-0.4l6.8-0.1c18.2-0.3,36.4,1.1,54.2,4.5c2.2,0.3,4.5,0.9,6.7,1.4l6.6,1.5
		c4.4,1.1,8.8,2.4,13.1,3.7l6.4,2.2l3.2,1.1c0.5,0.2,1.1,0.4,1.6,0.6l1.6,0.6l6.3,2.6l3.1,1.3l3.1,1.5
		C1150.5,594.9,1165.9,604.8,1179,617z"/>
</g>
<g>
	<path class="st0" d="M1121,862C1121,862,1121,862,1121,862L1121,862c38.8,16.9,80.3,28,122.4,31.4c10.5,0.8,21,1.2,31.6,1.1
		c10.5-0.1,21-0.8,31.5-1.9c10.4-1.2,20.8-2.7,31.1-4.9c10.3-2.2,20.4-4.9,30.4-8.1c19.9-6.4,39.1-15.2,56.8-26.1
		c17.7-10.9,34.1-24.2,48-39.5c6.9-7.7,13.3-15.9,19-24.5c5.7-8.7,10.6-17.8,14.7-27.3c8.3-18.9,13.2-39.3,14.7-59.9
		c0.8-10.3,0.8-20.7,0-31c-0.2-2.6-0.4-5.2-0.7-7.7l-1-7.7l-1.3-7.7l-0.3-1.9l-0.4-1.9l-0.8-3.8l-0.8-3.8l-0.9-3.7l-0.9-3.7
		c-0.2-0.6-0.3-1.3-0.5-1.9l-0.6-1.8c-0.9-2.4-1.6-4.8-2.6-7.2c-0.9-2.4-1.8-4.9-2.9-7.2c-4-9.5-8.9-18.7-14.4-27.4
		s-12-16.8-19.1-24.3c-3.5-3.8-7.4-7.2-11.2-10.6c-4-3.3-8-6.5-12.3-9.3c-4.2-3-8.7-5.5-13.2-8.1c-4.6-2.4-9.2-4.7-14-6.6
		c-4.7-2-9.6-3.7-14.6-5.3c-2.5-0.7-5-1.5-7.5-2.1l-3.8-0.9l-3.8-0.8c-20.3-4.2-41.4-4.3-62.1-1.3c-10.3,1.5-20.5,3.9-30.5,7
		c-10,3.1-19.7,7-29.2,11.7c-9.4,4.6-18.5,9.9-27.2,15.8c-8.7,5.9-16.9,12.5-24.8,19.6c-7.8,7.1-15.1,14.8-21.9,22.9
		c-6.8,8.1-13.2,16.4-18.9,25.4c84-141,287-151,339,9C1575,833,1339,964,1121,862z"/>
	<path d="M1531.4,703.6c-1.7,21.7-6.9,43.2-15.7,63.1c-8.8,19.9-20.9,38.3-35.7,54.3c-14.7,16-31.9,29.5-50.4,40.6
		c-9.3,5.6-18.9,10.5-28.7,14.9c-9.9,4.3-20,8-30.3,11.2c-20.6,6.2-41.8,10.3-63.2,12.1c-21.4,1.8-42.9,1.4-64.1-0.9
		c-42.8-5.4-84.3-18-122.3-36.9c0,0,0,0,0,0c-0.1,0-0.1-0.1-0.2-0.1c0.1,0,0.1,0.1,0.2,0.1c38.8,17,80.4,28,122.4,31.4
		c10.5,0.8,21,1.2,31.6,1.1c10.5-0.1,21-0.8,31.5-1.9c10.4-1.2,20.8-2.7,31.1-4.9c10.3-2.2,20.4-4.9,30.4-8.1
		c19.9-6.4,39.1-15.2,56.8-26.1c17.7-10.9,34.1-24.2,48-39.5c6.9-7.7,13.3-15.9,19-24.5c5.7-8.7,10.6-17.8,14.7-27.3
		c8.3-18.9,13.2-39.3,14.7-59.9c0.8-10.3,0.8-20.7,0-31c-0.2-2.6-0.4-5.2-0.7-7.7l-1-7.7l-1.3-7.7l-0.3-1.9l-0.4-1.9l-0.8-3.8
		l-0.8-3.8l-0.9-3.7l-0.9-3.7c-0.2-0.6-0.3-1.3-0.5-1.9l-0.6-1.8c-0.9-2.4-1.6-4.8-2.6-7.2c-0.9-2.4-1.8-4.9-2.9-7.2
		c-4-9.5-8.9-18.7-14.4-27.4s-12-16.8-19.1-24.3c-3.5-3.8-7.4-7.2-11.2-10.6c-4-3.3-8-6.5-12.3-9.3c-4.2-3-8.7-5.5-13.2-8.1
		c-4.6-2.4-9.2-4.7-14-6.6c-4.7-2-9.6-3.7-14.6-5.3c-2.5-0.7-5-1.5-7.5-2.1l-3.8-0.9l-3.8-0.8c-20.3-4.2-41.4-4.3-62.1-1.3
		c-10.3,1.5-20.5,3.9-30.5,7c-10,3.1-19.7,7-29.2,11.7c-9.4,4.6-18.5,9.9-27.2,15.8c-8.7,5.9-16.9,12.5-24.8,19.6
		c-7.8,7.1-15.1,14.8-21.9,22.9c-6.8,8.1-13.2,16.4-18.9,25.4c20.7-37,52.5-68.1,90.6-88.1c9.5-5,19.4-9.2,29.6-12.7
		c10.2-3.5,20.6-6.2,31.3-8.1c10.6-1.8,21.4-2.8,32.3-2.8c10.8,0,21.7,0.9,32.3,2.9l4,0.8l4,0.9c2.7,0.6,5.3,1.3,7.9,2
		c5.2,1.5,10.4,3.2,15.4,5.3c5.1,2,10,4.3,14.9,6.8c4.8,2.6,9.5,5.3,14.1,8.4c4.6,3,8.9,6.3,13.2,9.7c4.2,3.5,8.3,7.2,12,11.1
		c7.7,7.8,14.5,16.3,20.5,25.5c6,9.1,11.1,18.8,15.3,28.8c1.1,2.5,2.1,5,3.1,7.6c1,2.5,1.9,5.2,2.8,7.7l0.7,2c0.2,0.7,0.3,1.3,0.5,2
		l2,8l0.9,4l0.9,4l0.4,2l0.3,2c0.5,2.7,0.9,5.3,1.4,8l1.1,8.1c0.3,2.7,0.5,5.4,0.8,8.1C1532.1,681.8,1532.2,692.7,1531.4,703.6z"/>
</g>
<g>
	<path class="st1" d="M1126.5,713.5c-1.7,3.3-3.4,6.6-5.2,9.9c-0.8,1.7-1.9,3.2-2.8,4.8l-2.9,4.8c-1.9,3.3-4.1,6.2-6.3,9.3
		c-1.1,1.5-2.2,3.1-3.3,4.6l-3.5,4.4c-9.4,11.7-20.3,22.4-32.3,31.7s-25.3,17.1-39.2,23.3l-5.3,2.3c-1.8,0.7-3.6,1.3-5.4,2l-5.4,2
		l-5.5,1.7c-1.8,0.6-3.7,1.1-5.5,1.7l-5.5,1.4c-1.8,0.5-3.7,1-5.6,1.4l-5.6,1.1c-30,5.9-60.8,5.3-90.4,0.2
		c-29.6-5.2-58.3-14.7-84.7-28.3c28.6,7.7,57.3,13.9,86.3,16.6c28.8,2.8,57.9,2.2,85.9-3.3l5.3-1c1.8-0.4,3.5-0.8,5.2-1.2l5.2-1.3
		l5.1-1.5l5.1-1.5l5-1.7c1.7-0.6,3.4-1.1,5-1.8l5-2c1.7-0.7,3.3-1.3,5-2l4.9-2.2l2.4-1.1l1.2-0.5l1.2-0.6l4.8-2.4
		c1.6-0.8,3.2-1.6,4.7-2.5l4.6-2.7c3.2-1.7,6.1-3.7,9.1-5.7c12-7.8,23.2-17,33.7-27.1l3.9-3.8c1.3-1.3,2.5-2.7,3.8-4
		c2.5-2.7,5.1-5.3,7.5-8.1l3.6-4.2c1.2-1.4,2.4-2.8,3.6-4.2C1121.8,719.3,1124.1,716.3,1126.5,713.5z"/>
</g>
</svg>
