<?xml version="1.0" encoding="utf-8"?>
<!-- Generator: Adobe Illustrator 24.2.3, SVG Export Plug-In . SVG Version: 6.00 Build 0)  -->
<svg version="1.1" id="Layer_1" xmlns="http://www.w3.org/2000/svg" xmlns:xlink="http://www.w3.org/1999/xlink" x="0px" y="0px"
	 viewBox="0 0 1920 1080" style="enable-background:new 0 0 1920 1080;" xml:space="preserve">
<style type="text/css">
	.st0{fill:#51A9F2;}
</style>
<g>
	<g>
		<path class="st0" d="M827,561.9c1.8-9.1,4.2-17.7,6.8-26.1c2.5-8.4,5.4-16.5,8.4-24.5c11-10.9,21.9-21.9,32.9-32.8l65.8-65.8
			l17.7-17.7l17.7,17.7l67.3,67.3l16.8,16.8c5.6,5.6,11.1,11.3,17,16.7c3.1,8.1,5.9,16.5,8.6,25c2.7,8.5,5.2,17.2,7.2,26.4
			c-9.2-2-17.9-4.5-26.4-7.2c-8.5-2.7-16.9-5.5-25-8.6c-5.4-5.8-11.1-11.3-16.7-17l-16.8-16.8l-67.3-67.3h35.4l-65.8,65.8
			c-10.9,11-22,21.9-32.8,32.9c-8,3-16.1,5.8-24.5,8.4C844.7,557.7,836.2,560.1,827,561.9z"/>
	</g>
	<g>
		<path class="st0" d="M827,682c1.8-9.1,4.2-17.7,6.8-26.1c2.5-8.4,5.4-16.5,8.4-24.5c11-10.9,21.9-21.9,32.9-32.8l65.8-65.8
			l17.7-17.7l17.7,17.7l67.2,67.3l16.8,16.8c5.6,5.6,11.1,11.3,17,16.7c3.1,8.1,5.9,16.5,8.6,25c2.7,8.5,5.2,17.2,7.2,26.4
			c-9.2-2-17.9-4.5-26.4-7.2c-8.5-2.7-16.9-5.5-25-8.6c-5.4-5.8-11.1-11.3-16.7-17l-16.8-16.8l-67.3-67.3h35.4l-65.8,65.8
			c-10.9,11-22,21.9-32.8,32.9c-8,3-16.1,5.8-24.5,8.4C844.7,677.7,836.1,680.1,827,682z"/>
	</g>
</g>
</svg>
